<svg xmlns="http://www.w3.org/2000/svg" xmlns:xlink="http://www.w3.org/1999/xlink" xmlns:lucid="lucid" width="1080" height="580.85"><g transform="translate(-40 -105.66666666666674)" lucid:page-tab-id="0_0"><path d="M284.66 147.14a9.05 9.05 0 0 0 8.34 5.53h121a6 6 0 0 1 6 6v202a6 6 0 0 1-6 6H66a6 6 0 0 1-6-6v-228a6 6 0 0 1 6-6h204a9.05 9.05 0 0 1 8.34 5.52zM60 152.67h227" stroke="#3a414a" fill="#fff"/><use xlink:href="#a" transform="matrix(1,0,0,1,68,126.66666666666674) translate(0 17.77777777777778)"/><use xlink:href="#b" transform="matrix(1,0,0,1,72,160.66666666666674) translate(0 103.44444444444446)"/><path d="M580 152.67a6 6 0 0 1 6-6h148a6 6 0 0 1 6 6v108a6 6 0 0 1-6 6H586a6 6 0 0 1-6-6z" stroke="#3a414a" fill="#fff"/><path d="M730 156.67h-15v20h15z" stroke="#3a414a" fill="#fff"/><path d="M720 160h-10v3.33h10zm0 10h-10v3.33h10z" stroke="#3a414a" fill="#fff"/><use xlink:href="#c" transform="matrix(1,0,0,1,580,146.66666666666674) translate(33.739567901234565 62.77777777777778)"/><path d="M580 319.4a6 6 0 0 1 6-6h148a6 6 0 0 1 6 6v108a6 6 0 0 1-6 6H586a6 6 0 0 1-6-6z" stroke="#3a414a" fill="#fff"/><path d="M730 323.4h-15v20h15z" stroke="#3a414a" fill="#fff"/><path d="M720 326.72h-10v3.34h10zm0 10h-10v3.34h10z" stroke="#3a414a" fill="#fff"/><use xlink:href="#d" transform="matrix(1,0,0,1,580,313.390426785091) translate(44.85067901234568 62.77777777777778)"/><path d="M450.84 269.33H494a6 6 0 0 0 6-6v-50.66a6 6 0 0 1 6-6h73.04" stroke="#3a414a" fill="none"/><path d="M421.17 269.33l14.85-14.85 15.15 14.85-15.15 14.85z" stroke="#3a414a" fill="#3a414a"/><path d="M579.54 207.17h-.52v-1h.52z" stroke="#3a414a" stroke-width=".05" fill="#3a414a"/><path d="M450.84 269.33H494a6 6 0 0 1 6 6v92.06a6 6 0 0 0 6 6h73.04" stroke="#3a414a" fill="none"/><path d="M421.17 269.33l14.85-14.85 15.15 14.85-15.15 14.85z" stroke="#3a414a" fill="#3a414a"/><path d="M579.54 373.9h-.52v-1h.52z" stroke="#3a414a" stroke-width=".05" fill="#3a414a"/><path d="M840 168.24a6 6 0 0 1 6-6h243.47a6 6 0 0 1 6 6V245a6 6 0 0 1-6 6H846a6 6 0 0 1-6-6z" stroke="#3a414a" fill="#fff"/><use xlink:href="#e" transform="matrix(1,0,0,1,840,162.24125739158626) translate(41.555 47.775)"/><path d="M770.84 207.13h68.2" stroke="#3a414a" stroke-linejoin="round" fill="none"/><path d="M741.17 207.13l14.85-14.85 15.15 14.85-15.15 14.85z" stroke="#3a414a" fill="#3a414a"/><path d="M839.54 207.63h-.52v-1h.52z" stroke="#3a414a" stroke-width=".05" fill="#3a414a"/><path d="M844.53 335.02a6 6 0 0 1 6-6H1094a6 6 0 0 1 6 6v76.75a6 6 0 0 1-6 6H850.53a6 6 0 0 1-6-6z" stroke="#3a414a" fill="#fff"/><use xlink:href="#f" transform="matrix(1,0,0,1,844.53125,329.015426785091) translate(78.58 47.775)"/><path d="M770.84 373.4h72.73" stroke="#3a414a" stroke-linejoin="round" fill="none"/><path d="M741.17 373.4l14.85-14.86 15.15 14.85-15.15 14.84z" stroke="#3a414a" fill="#3a414a"/><path d="M844.07 373.9h-.52v-1h.52z" stroke="#3a414a" stroke-width=".05" fill="#3a414a"/><path d="M844.53 583.77a6 6 0 0 1 6-6H1094a6 6 0 0 1 6 6v76.75a6 6 0 0 1-6 6H850.53a6 6 0 0 1-6-6z" stroke="#3a414a" fill="#fff"/><use xlink:href="#g" transform="matrix(1,0,0,1,844.53125,577.7654267850908) translate(78.58 47.775)"/><path d="M844.53 459.4a6 6 0 0 1 6-6H1094a6 6 0 0 1 6 6v76.74a6 6 0 0 1-6 6H850.53a6 6 0 0 1-6-6z" stroke="#3a414a" fill="#fff"/><use xlink:href="#h" transform="matrix(1,0,0,1,844.53125,453.39042678509077) translate(78.58 47.775)"/><path d="M770.84 373.4h15.43a6 6 0 0 1 6 6v112.37a6 6 0 0 0 6 6h45.3" stroke="#3a414a" fill="none"/><path d="M741.17 373.4l14.85-14.86 15.15 14.85-15.15 14.84z" stroke="#3a414a" fill="#3a414a"/><path d="M844.07 498.27h-.52v-1h.52z" stroke="#3a414a" stroke-width=".05" fill="#3a414a"/><path d="M770.84 373.4h15.43a6 6 0 0 1 6 6v236.74a6 6 0 0 0 6 6h45.3" stroke="#3a414a" fill="none"/><path d="M741.17 373.4l14.85-14.86 15.15 14.85-15.15 14.84z" stroke="#3a414a" fill="#3a414a"/><path d="M844.07 622.64h-.52v-1h.52z" stroke="#3a414a" stroke-width=".05" fill="#3a414a"/><defs><path fill="#3a414a" d="M30-248c87 1 191-15 191 75 0 78-77 80-158 76V0H30v-248zm33 125c57 0 124 11 124-50 0-59-68-47-124-48v98" id="i"/><path fill="#3a414a" d="M141-36C126-15 110 5 73 4 37 3 15-17 15-53c-1-64 63-63 125-63 3-35-9-54-41-54-24 1-41 7-42 31l-33-3c5-37 33-52 76-52 45 0 72 20 72 64v82c-1 20 7 32 28 27v20c-31 9-61-2-59-35zM48-53c0 20 12 33 32 33 41-3 63-29 60-74-43 2-92-5-92 41" id="j"/><path fill="#3a414a" d="M96-169c-40 0-48 33-48 73s9 75 48 75c24 0 41-14 43-38l32 2c-6 37-31 61-74 61-59 0-76-41-82-99-10-93 101-131 147-64 4 7 5 14 7 22l-32 3c-4-21-16-35-41-35" id="k"/><path fill="#3a414a" d="M143 0L79-87 56-68V0H24v-261h32v163l83-92h37l-77 82L181 0h-38" id="l"/><path fill="#3a414a" d="M177-190C167-65 218 103 67 71c-23-6-38-20-44-43l32-5c15 47 100 32 89-28v-30C133-14 115 1 83 1 29 1 15-40 15-95c0-56 16-97 71-98 29-1 48 16 59 35 1-10 0-23 2-32h30zM94-22c36 0 50-32 50-73 0-42-14-75-50-75-39 0-46 34-46 75s6 73 46 73" id="m"/><path fill="#3a414a" d="M100-194c63 0 86 42 84 106H49c0 40 14 67 53 68 26 1 43-12 49-29l28 8c-11 28-37 45-77 45C44 4 14-33 15-96c1-61 26-98 85-98zm52 81c6-60-76-77-97-28-3 7-6 17-6 28h103" id="n"/><g id="a"><use transform="matrix(0.06172839506172839,0,0,0.06172839506172839,0,0)" xlink:href="#i"/><use transform="matrix(0.06172839506172839,0,0,0.06172839506172839,14.814814814814813,0)" xlink:href="#j"/><use transform="matrix(0.06172839506172839,0,0,0.06172839506172839,27.160493827160494,0)" xlink:href="#k"/><use transform="matrix(0.06172839506172839,0,0,0.06172839506172839,38.27160493827161,0)" xlink:href="#l"/><use transform="matrix(0.06172839506172839,0,0,0.06172839506172839,49.38271604938272,0)" xlink:href="#j"/><use transform="matrix(0.06172839506172839,0,0,0.06172839506172839,61.7283950617284,0)" xlink:href="#m"/><use transform="matrix(0.06172839506172839,0,0,0.06172839506172839,74.07407407407408,0)" xlink:href="#n"/></g><path fill="#3a414a" d="M240 0l2-218c-23 76-54 145-80 218h-23L58-218 59 0H30v-248h44l77 211c21-75 51-140 76-211h43V0h-30" id="o"/><path fill="#3a414a" d="M27 0v-27h64v-190l-56 39v-29l58-41h29v221h61V0H27" id="p"/><path fill="#3a414a" d="M101-251c82-7 93 87 43 132L82-64C71-53 59-42 53-27h129V0H18c2-99 128-94 128-182 0-28-16-43-45-43s-46 15-49 41l-32-3c6-41 34-60 81-64" id="q"/><path fill="#3a414a" d="M126-127c33 6 58 20 58 59 0 88-139 92-164 29-3-8-5-16-6-25l32-3c6 27 21 44 54 44 32 0 52-15 52-46 0-38-36-46-79-43v-28c39 1 72-4 72-42 0-27-17-43-46-43-28 0-47 15-49 41l-32-3c6-42 35-63 81-64 48-1 79 21 79 65 0 36-21 52-52 59" id="r"/><path fill="#3a414a" d="M155-56V0h-30v-56H8v-25l114-167h33v167h35v25h-35zm-30-156c-27 46-58 90-88 131h88v-131" id="s"/><path fill="#3a414a" d="M-5 72V49h209v23H-5" id="t"/><path fill="#3a414a" d="M30 0v-248h187v28H63v79h144v27H63v87h162V0H30" id="u"/><path fill="#3a414a" d="M233-177c-1 41-23 64-60 70L243 0h-38l-65-103H63V0H30v-248c88 3 205-21 203 71zM63-129c60-2 137 13 137-47 0-61-80-42-137-45v92" id="v"/><path fill="#3a414a" d="M101-251c68 0 85 55 85 127S166 4 100 4C33 4 14-52 14-124c0-73 17-127 87-127zm-1 229c47 0 54-49 54-102s-4-102-53-102c-51 0-55 48-55 102 0 53 5 102 54 102" id="w"/><g id="b"><use transform="matrix(0.06172839506172839,0,0,0.06172839506172839,0,0)" xlink:href="#o"/><use transform="matrix(0.06172839506172839,0,0,0.06172839506172839,18.456790123456788,0)" xlink:href="#p"/><use transform="matrix(0.06172839506172839,0,0,0.06172839506172839,30.80246913580247,0)" xlink:href="#q"/><use transform="matrix(0.06172839506172839,0,0,0.06172839506172839,43.148148148148145,0)" xlink:href="#r"/><use transform="matrix(0.06172839506172839,0,0,0.06172839506172839,55.49382716049382,0)" xlink:href="#s"/><use transform="matrix(0.06172839506172839,0,0,0.06172839506172839,67.8395061728395,0)" xlink:href="#t"/><use transform="matrix(0.06172839506172839,0,0,0.06172839506172839,80.18518518518519,0)" xlink:href="#u"/><use transform="matrix(0.06172839506172839,0,0,0.06172839506172839,95,0)" xlink:href="#v"/><use transform="matrix(0.06172839506172839,0,0,0.06172839506172839,110.98765432098766,0)" xlink:href="#t"/><use transform="matrix(0.06172839506172839,0,0,0.06172839506172839,123.33333333333334,0)" xlink:href="#w"/><use transform="matrix(0.06172839506172839,0,0,0.06172839506172839,135.679012345679,0)" xlink:href="#w"/><use transform="matrix(0.06172839506172839,0,0,0.06172839506172839,148.02469135802468,0)" xlink:href="#w"/><use transform="matrix(0.06172839506172839,0,0,0.06172839506172839,160.37037037037035,0)" xlink:href="#p"/></g><path fill="#3a414a" d="M210-169c-67 3-38 105-44 169h-31v-121c0-29-5-50-35-48C34-165 62-65 56 0H25l-1-190h30c1 10-1 24 2 32 10-44 99-50 107 0 11-21 27-35 58-36 85-2 47 119 55 194h-31v-121c0-29-5-49-35-48" id="x"/><path fill="#3a414a" d="M59-47c-2 24 18 29 38 22v24C64 9 27 4 27-40v-127H5v-23h24l9-43h21v43h35v23H59v120" id="y"/><path fill="#3a414a" d="M85-194c31 0 48 13 60 33l-1-100h32l1 261h-30c-2-10 0-23-3-31C134-8 116 4 85 4 32 4 16-35 15-94c0-66 23-100 70-100zm9 24c-40 0-46 34-46 75 0 40 6 74 45 74 42 0 51-32 51-76 0-42-9-74-50-73" id="z"/><g id="c"><use transform="matrix(0.06172839506172839,0,0,0.06172839506172839,0,0)" xlink:href="#x"/><use transform="matrix(0.06172839506172839,0,0,0.06172839506172839,18.456790123456788,0)" xlink:href="#n"/><use transform="matrix(0.06172839506172839,0,0,0.06172839506172839,30.80246913580247,0)" xlink:href="#y"/><use transform="matrix(0.06172839506172839,0,0,0.06172839506172839,36.97530864197531,0)" xlink:href="#j"/><use transform="matrix(0.06172839506172839,0,0,0.06172839506172839,49.32098765432099,0)" xlink:href="#z"/><use transform="matrix(0.06172839506172839,0,0,0.06172839506172839,61.666666666666664,0)" xlink:href="#j"/><use transform="matrix(0.06172839506172839,0,0,0.06172839506172839,74.01234567901234,0)" xlink:href="#y"/><use transform="matrix(0.06172839506172839,0,0,0.06172839506172839,80.18518518518518,0)" xlink:href="#j"/></g><path fill="#3a414a" d="M100-194c62-1 85 37 85 99 1 63-27 99-86 99S16-35 15-95c0-66 28-99 85-99zM99-20c44 1 53-31 53-75 0-43-8-75-51-75s-53 32-53 75 10 74 51 75" id="A"/><path fill="#3a414a" d="M115-194c53 0 69 39 70 98 0 66-23 100-70 100C84 3 66-7 56-30L54 0H23l1-261h32v101c10-23 28-34 59-34zm-8 174c40 0 45-34 45-75 0-40-5-75-45-74-42 0-51 32-51 76 0 43 10 73 51 73" id="B"/><path fill="#3a414a" d="M24-231v-30h32v30H24zM-9 49c24 4 33-6 33-30v-209h32V24c2 40-23 58-65 49V49" id="C"/><path fill="#3a414a" d="M135-143c-3-34-86-38-87 0 15 53 115 12 119 90S17 21 10-45l28-5c4 36 97 45 98 0-10-56-113-15-118-90-4-57 82-63 122-42 12 7 21 19 24 35" id="D"/><g id="d"><use transform="matrix(0.06172839506172839,0,0,0.06172839506172839,0,0)" xlink:href="#A"/><use transform="matrix(0.06172839506172839,0,0,0.06172839506172839,12.345679012345679,0)" xlink:href="#B"/><use transform="matrix(0.06172839506172839,0,0,0.06172839506172839,24.691358024691358,0)" xlink:href="#C"/><use transform="matrix(0.06172839506172839,0,0,0.06172839506172839,29.5679012345679,0)" xlink:href="#n"/><use transform="matrix(0.06172839506172839,0,0,0.06172839506172839,41.913580246913575,0)" xlink:href="#k"/><use transform="matrix(0.06172839506172839,0,0,0.06172839506172839,53.02469135802468,0)" xlink:href="#y"/><use transform="matrix(0.06172839506172839,0,0,0.06172839506172839,59.197530864197525,0)" xlink:href="#D"/></g><path fill="#3a414a" d="M33 0v-38h34V0H33" id="E"/><path fill="#3a414a" d="M108 0H70L1-190h34L89-25l56-165h34" id="F"/><g id="e"><use transform="matrix(0.05,0,0,0.05,0,0)" xlink:href="#o"/><use transform="matrix(0.05,0,0,0.05,14.950000000000001,0)" xlink:href="#p"/><use transform="matrix(0.05,0,0,0.05,24.950000000000003,0)" xlink:href="#q"/><use transform="matrix(0.05,0,0,0.05,34.95,0)" xlink:href="#r"/><use transform="matrix(0.05,0,0,0.05,44.95,0)" xlink:href="#s"/><use transform="matrix(0.05,0,0,0.05,54.95,0)" xlink:href="#t"/><use transform="matrix(0.05,0,0,0.05,64.95,0)" xlink:href="#u"/><use transform="matrix(0.05,0,0,0.05,76.95,0)" xlink:href="#v"/><use transform="matrix(0.05,0,0,0.05,89.9,0)" xlink:href="#t"/><use transform="matrix(0.05,0,0,0.05,99.9,0)" xlink:href="#w"/><use transform="matrix(0.05,0,0,0.05,109.9,0)" xlink:href="#w"/><use transform="matrix(0.05,0,0,0.05,119.9,0)" xlink:href="#w"/><use transform="matrix(0.05,0,0,0.05,129.9,0)" xlink:href="#p"/><use transform="matrix(0.05,0,0,0.05,139.9,0)" xlink:href="#E"/><use transform="matrix(0.05,0,0,0.05,144.9,0)" xlink:href="#k"/><use transform="matrix(0.05,0,0,0.05,153.9,0)" xlink:href="#D"/><use transform="matrix(0.05,0,0,0.05,162.9,0)" xlink:href="#F"/></g><path d="M101-234c-31-9-42 10-38 44h38v23H63V0H32v-167H5v-23h27c-7-52 17-82 69-68v24" id="G"/><path d="M24-231v-30h32v30H24zM24 0v-190h32V0H24" id="H"/><path d="M24 0v-261h32V0H24" id="I"/><path d="M100-194c63 0 86 42 84 106H49c0 40 14 67 53 68 26 1 43-12 49-29l28 8c-11 28-37 45-77 45C44 4 14-33 15-96c1-61 26-98 85-98zm52 81c6-60-76-77-97-28-3 7-6 17-6 28h103" id="J"/><path d="M117-194c89-4 53 116 60 194h-32v-121c0-31-8-49-39-48C34-167 62-67 57 0H25l-1-190h30c1 10-1 24 2 32 11-22 29-35 61-36" id="K"/><path d="M141-36C126-15 110 5 73 4 37 3 15-17 15-53c-1-64 63-63 125-63 3-35-9-54-41-54-24 1-41 7-42 31l-33-3c5-37 33-52 76-52 45 0 72 20 72 64v82c-1 20 7 32 28 27v20c-31 9-61-2-59-35zM48-53c0 20 12 33 32 33 41-3 63-29 60-74-43 2-92-5-92 41" id="L"/><path d="M210-169c-67 3-38 105-44 169h-31v-121c0-29-5-50-35-48C34-165 62-65 56 0H25l-1-190h30c1 10-1 24 2 32 10-44 99-50 107 0 11-21 27-35 58-36 85-2 47 119 55 194h-31v-121c0-29-5-49-35-48" id="M"/><path d="M-5 72V49h209v23H-5" id="N"/><path d="M101-251c68 0 85 55 85 127S166 4 100 4C33 4 14-52 14-124c0-73 17-127 87-127zm-1 229c47 0 54-49 54-102s-4-102-53-102c-51 0-55 48-55 102 0 53 5 102 54 102" id="O"/><path d="M27 0v-27h64v-190l-56 39v-29l58-41h29v221h61V0H27" id="P"/><g id="f"><use transform="matrix(0.05,0,0,0.05,0,0)" xlink:href="#G"/><use transform="matrix(0.05,0,0,0.05,5,0)" xlink:href="#H"/><use transform="matrix(0.05,0,0,0.05,8.95,0)" xlink:href="#I"/><use transform="matrix(0.05,0,0,0.05,12.899999999999999,0)" xlink:href="#J"/><use transform="matrix(0.05,0,0,0.05,22.9,0)" xlink:href="#K"/><use transform="matrix(0.05,0,0,0.05,32.9,0)" xlink:href="#L"/><use transform="matrix(0.05,0,0,0.05,42.9,0)" xlink:href="#M"/><use transform="matrix(0.05,0,0,0.05,57.85,0)" xlink:href="#J"/><use transform="matrix(0.05,0,0,0.05,67.85,0)" xlink:href="#N"/><use transform="matrix(0.05,0,0,0.05,77.85,0)" xlink:href="#O"/><use transform="matrix(0.05,0,0,0.05,87.85,0)" xlink:href="#P"/></g><path d="M126-127c33 6 58 20 58 59 0 88-139 92-164 29-3-8-5-16-6-25l32-3c6 27 21 44 54 44 32 0 52-15 52-46 0-38-36-46-79-43v-28c39 1 72-4 72-42 0-27-17-43-46-43-28 0-47 15-49 41l-32-3c6-42 35-63 81-64 48-1 79 21 79 65 0 36-21 52-52 59" id="Q"/><g id="g"><use transform="matrix(0.05,0,0,0.05,0,0)" xlink:href="#G"/><use transform="matrix(0.05,0,0,0.05,5,0)" xlink:href="#H"/><use transform="matrix(0.05,0,0,0.05,8.95,0)" xlink:href="#I"/><use transform="matrix(0.05,0,0,0.05,12.899999999999999,0)" xlink:href="#J"/><use transform="matrix(0.05,0,0,0.05,22.9,0)" xlink:href="#K"/><use transform="matrix(0.05,0,0,0.05,32.9,0)" xlink:href="#L"/><use transform="matrix(0.05,0,0,0.05,42.9,0)" xlink:href="#M"/><use transform="matrix(0.05,0,0,0.05,57.85,0)" xlink:href="#J"/><use transform="matrix(0.05,0,0,0.05,67.85,0)" xlink:href="#N"/><use transform="matrix(0.05,0,0,0.05,77.85,0)" xlink:href="#O"/><use transform="matrix(0.05,0,0,0.05,87.85,0)" xlink:href="#Q"/></g><path d="M101-251c82-7 93 87 43 132L82-64C71-53 59-42 53-27h129V0H18c2-99 128-94 128-182 0-28-16-43-45-43s-46 15-49 41l-32-3c6-41 34-60 81-64" id="R"/><g id="h"><use transform="matrix(0.05,0,0,0.05,0,0)" xlink:href="#G"/><use transform="matrix(0.05,0,0,0.05,5,0)" xlink:href="#H"/><use transform="matrix(0.05,0,0,0.05,8.95,0)" xlink:href="#I"/><use transform="matrix(0.05,0,0,0.05,12.899999999999999,0)" xlink:href="#J"/><use transform="matrix(0.05,0,0,0.05,22.9,0)" xlink:href="#K"/><use transform="matrix(0.05,0,0,0.05,32.9,0)" xlink:href="#L"/><use transform="matrix(0.05,0,0,0.05,42.9,0)" xlink:href="#M"/><use transform="matrix(0.05,0,0,0.05,57.85,0)" xlink:href="#J"/><use transform="matrix(0.05,0,0,0.05,67.85,0)" xlink:href="#N"/><use transform="matrix(0.05,0,0,0.05,77.85,0)" xlink:href="#O"/><use transform="matrix(0.05,0,0,0.05,87.85,0)" xlink:href="#R"/></g></defs></g></svg>