<svg xmlns="http://www.w3.org/2000/svg" xmlns:xlink="http://www.w3.org/1999/xlink" xmlns:lucid="lucid" width="1662.96" height="694.85"><g transform="translate(-20 -119)" lucid:page-tab-id="0_0"><path d="M264.66 160.47A9.05 9.05 0 0 0 273 166h121a6 6 0 0 1 6 6v202a6 6 0 0 1-6 6H46a6 6 0 0 1-6-6V146a6 6 0 0 1 6-6h204a9.05 9.05 0 0 1 8.34 5.53zM40 166h227" stroke="#3a414a" fill="#fff"/><use xlink:href="#a" transform="matrix(1,0,0,1,48,140) translate(0 17.77777777777778)"/><use xlink:href="#b" transform="matrix(1,0,0,1,52,174) translate(0 90.11111111111111)"/><use xlink:href="#c" transform="matrix(1,0,0,1,52,174) translate(19.1358024691358 90.11111111111111)"/><use xlink:href="#d" transform="matrix(1,0,0,1,52,174) translate(73.45679012345678 90.11111111111111)"/><use xlink:href="#e" transform="matrix(1,0,0,1,52,174) translate(0 116.7777777777778)"/><use xlink:href="#f" transform="matrix(1,0,0,1,52,174) translate(19.1358024691358 116.7777777777778)"/><use xlink:href="#g" transform="matrix(1,0,0,1,52,174) translate(86.9753086419753 116.7777777777778)"/><use xlink:href="#h" transform="matrix(1,0,0,1,52,174) translate(165.80246913580245 116.7777777777778)"/><use xlink:href="#i" transform="matrix(1,0,0,1,52,174) translate(204.01234567901233 116.7777777777778)"/><path d="M560 166a6 6 0 0 1 6-6h208a6 6 0 0 1 6 6v109.88a6 6 0 0 1-6 6H566a6 6 0 0 1-6-6z" stroke="#3a414a" fill="#fff"/><path d="M770 170h-15v20h15z" stroke="#3a414a" fill="#fff"/><path d="M760 173.33h-10v3.34h10zm0 10h-10v3.34h10z" stroke="#3a414a" fill="#fff"/><use xlink:href="#b" transform="matrix(1,0,0,1,560,160) translate(5.01 52.09027777777778)"/><use xlink:href="#c" transform="matrix(1,0,0,1,560,160) translate(24.145802469135802 52.09027777777778)"/><use xlink:href="#d" transform="matrix(1,0,0,1,560,160) translate(78.46679012345679 52.09027777777778)"/><use xlink:href="#e" transform="matrix(1,0,0,1,560,160) translate(5.01 78.75694444444446)"/><use xlink:href="#f" transform="matrix(1,0,0,1,560,160) translate(24.145802469135802 78.75694444444446)"/><use xlink:href="#j" transform="matrix(1,0,0,1,560,160) translate(91.98530864197531 78.75694444444446)"/><path d="M560 466a6 6 0 0 1 6-6h208a6 6 0 0 1 6 6v108a6 6 0 0 1-6 6H566a6 6 0 0 1-6-6z" stroke="#3a414a" fill="#fff"/><path d="M770 470h-15v20h15z" stroke="#3a414a" fill="#fff"/><path d="M760 473.33h-10v3.34h10zm0 10h-10v3.34h10z" stroke="#3a414a" fill="#fff"/><use xlink:href="#b" transform="matrix(1,0,0,1,560,460) translate(5.01 51.52777777777778)"/><use xlink:href="#c" transform="matrix(1,0,0,1,560,460) translate(24.145802469135802 51.52777777777778)"/><use xlink:href="#d" transform="matrix(1,0,0,1,560,460) translate(78.46679012345679 51.52777777777778)"/><use xlink:href="#e" transform="matrix(1,0,0,1,560,460) translate(5.01 78.19444444444446)"/><use xlink:href="#f" transform="matrix(1,0,0,1,560,460) translate(24.145802469135802 78.19444444444446)"/><use xlink:href="#k" transform="matrix(1,0,0,1,560,460) translate(91.98530864197531 78.19444444444446)"/><path d="M430.84 282.67H474a6 6 0 0 0 6-6v-49.73a6 6 0 0 1 6-6h73.04" stroke="#3a414a" fill="none"/><path d="M401.17 282.67l14.85-14.85 15.15 14.85-15.15 14.84z" stroke="#3a414a" fill="#3a414a"/><path d="M559.54 221.44h-.52v-1h.52z" stroke="#3a414a" stroke-width=".05" fill="#3a414a"/><use xlink:href="#l" transform="matrix(1,0,0,1,405.2769843323223,302.1655247976315) translate(0 14.4)"/><use xlink:href="#l" transform="matrix(1,0,0,1,538.5257294803891,195.33749999999998) translate(0 14.4)"/><path d="M430.84 282.67H474a6 6 0 0 1 6 6V514a6 6 0 0 0 6 6h73.04" stroke="#3a414a" fill="none"/><path d="M401.17 282.67l14.85-14.85 15.15 14.85-15.15 14.84z" stroke="#3a414a" fill="#3a414a"/><path d="M559.54 520.5h-.52v-1h.52z" stroke="#3a414a" stroke-width=".05" fill="#3a414a"/><use xlink:href="#l" transform="matrix(1,0,0,1,537.3454462096379,494.40000000000003) translate(0 14.4)"/><path d="M957.04 182.52a6 6 0 0 1 6-6H1234a6 6 0 0 1 6 6v76.75a6 6 0 0 1-6 6H963.04a6 6 0 0 1-6-6z" stroke="#3a414a" fill="#fff"/><use xlink:href="#m" transform="matrix(1,0,0,1,957.0366641856244,176.5193168874922) translate(5.01 36.65)"/><use xlink:href="#n" transform="matrix(1,0,0,1,957.0366641856244,176.5193168874922) translate(20.509999999999998 36.65)"/><use xlink:href="#o" transform="matrix(1,0,0,1,957.0366641856244,176.5193168874922) translate(64.50999999999999 36.65)"/><use xlink:href="#p" transform="matrix(1,0,0,1,957.0366641856244,176.5193168874922) translate(92.41 36.65)"/><use xlink:href="#q" transform="matrix(1,0,0,1,957.0366641856244,176.5193168874922) translate(137.26 36.65)"/><use xlink:href="#r" transform="matrix(1,0,0,1,957.0366641856244,176.5193168874922) translate(192.20999999999998 36.65)"/><use xlink:href="#m" transform="matrix(1,0,0,1,957.0366641856244,176.5193168874922) translate(5.01 58.25)"/><use xlink:href="#s" transform="matrix(1,0,0,1,957.0366641856244,176.5193168874922) translate(20.509999999999998 58.25)"/><use xlink:href="#o" transform="matrix(1,0,0,1,957.0366641856244,176.5193168874922) translate(75.46000000000001 58.25)"/><use xlink:href="#t" transform="matrix(1,0,0,1,957.0366641856244,176.5193168874922) translate(103.36000000000001 58.25)"/><path d="M810.84 221.4h145.23" stroke="#3a414a" stroke-linejoin="round" fill="none"/><path d="M781.17 221.4l14.85-14.84 15.15 14.85-15.15 14.86z" stroke="#3a414a" fill="#3a414a"/><path d="M956.57 221.9h-.5v-1h.5z" stroke="#3a414a" stroke-width=".05" fill="#3a414a"/><use xlink:href="#l" transform="matrix(1,0,0,1,798.3407144442843,240.90893659098896) translate(0 14.4)"/><use xlink:href="#u" transform="matrix(1,0,0,1,911.5850295938541,195.8076111708265) translate(0 14.4)"/><path d="M1280 666a6 6 0 0 1 6-6h205.8a6 6 0 0 1 6 6v76.75a6 6 0 0 1-6 6H1286a6 6 0 0 1-6-6z" stroke="#3a414a" fill="#fff"/><use xlink:href="#m" transform="matrix(1,0,0,1,1280,660) translate(5.01 36.65)"/><use xlink:href="#n" transform="matrix(1,0,0,1,1280,660) translate(20.509999999999998 36.65)"/><use xlink:href="#v" transform="matrix(1,0,0,1,1280,660) translate(64.50999999999999 36.65)"/><use xlink:href="#w" transform="matrix(1,0,0,1,1280,660) translate(5.01 58.25)"/><use xlink:href="#s" transform="matrix(1,0,0,1,1280,660) translate(20.509999999999998 58.25)"/><use xlink:href="#o" transform="matrix(1,0,0,1,1280,660) translate(75.46000000000001 58.25)"/><use xlink:href="#x" transform="matrix(1,0,0,1,1280,660) translate(103.36000000000001 58.25)"/><path d="M810.84 520H914a6 6 0 0 1 6 6v172.38a6 6 0 0 0 6 6h353.04" stroke="#3a414a" fill="none"/><path d="M781.17 520l14.85-14.85L811.17 520l-15.15 14.85z" stroke="#3a414a" fill="#3a414a"/><path d="M1279.54 704.88h-.52v-1h.52z" stroke="#3a414a" stroke-width=".05" fill="#3a414a"/><use xlink:href="#l" transform="matrix(1,0,0,1,821.8473262153868,524.0000000000001) translate(0 14.4)"/><use xlink:href="#y" transform="matrix(1,0,0,1,1241.1370625584827,678.7750000000001) translate(0 14.4)"/><path d="M957.04 306.94a6 6 0 0 1 6-6H1334a6 6 0 0 1 6 6V394a6 6 0 0 1-6 6H963.04a6 6 0 0 1-6-6z" stroke="#3a414a" fill="#fff"/><path d="M1330 310.94h-15v20h15z" stroke="#3a414a" fill="#fff"/><path d="M1320 314.28h-10v3.33h10zm0 10h-10v3.33h10z" stroke="#3a414a" fill="#fff"/><g><use xlink:href="#z" transform="matrix(1,0,0,1,957.0366641856244,300.9447261625727) translate(5.01 27.15277777777777)"/><use xlink:href="#A" transform="matrix(1,0,0,1,957.0366641856244,300.9447261625727) translate(24.145802469135795 27.15277777777777)"/><use xlink:href="#B" transform="matrix(1,0,0,1,957.0366641856244,300.9447261625727) translate(78.46679012345675 27.15277777777777)"/><use xlink:href="#C" transform="matrix(1,0,0,1,957.0366641856244,300.9447261625727) translate(5.01 53.81944444444443)"/><use xlink:href="#D" transform="matrix(1,0,0,1,957.0366641856244,300.9447261625727) translate(24.145802469135795 53.81944444444443)"/><use xlink:href="#E" transform="matrix(1,0,0,1,957.0366641856244,300.9447261625727) translate(91.98530864197528 53.81944444444443)"/><use xlink:href="#F" transform="matrix(1,0,0,1,957.0366641856244,300.9447261625727) translate(5.01 80.48611111111109)"/></g><path d="M810.84 220.94h51.68a6 6 0 0 1 6 6v117.53a6 6 0 0 0 6 6h81.55" stroke="#3a414a" fill="none"/><path d="M781.17 220.94l14.85-14.85 15.15 14.84-15.15 14.85z" stroke="#3a414a" fill="#3a414a"/><path d="M956.57 350.97h-.5v-1h.5z" stroke="#3a414a" stroke-width=".05" fill="#3a414a"/><g><use xlink:href="#u" transform="matrix(1,0,0,1,912.4771725950767,354.47236308128635) translate(0 14.4)"/></g><path d="M1440 312.1a6 6 0 0 1 6-6h210.96a6 6 0 0 1 6 6v76.75a6 6 0 0 1-6 6H1446a6 6 0 0 1-6-6z" stroke="#3a414a" fill="#fff"/><g><use xlink:href="#m" transform="matrix(1,0,0,1,1440,306.09736308128635) translate(5.01 36.65)"/><use xlink:href="#n" transform="matrix(1,0,0,1,1440,306.09736308128635) translate(20.509999999999998 36.65)"/><use xlink:href="#o" transform="matrix(1,0,0,1,1440,306.09736308128635) translate(64.50999999999999 36.65)"/><use xlink:href="#G" transform="matrix(1,0,0,1,1440,306.09736308128635) translate(92.41 36.65)"/><use xlink:href="#m" transform="matrix(1,0,0,1,1440,306.09736308128635) translate(5.01 58.25)"/><use xlink:href="#s" transform="matrix(1,0,0,1,1440,306.09736308128635) translate(20.509999999999998 58.25)"/><use xlink:href="#o" transform="matrix(1,0,0,1,1440,306.09736308128635) translate(75.46000000000001 58.25)"/><use xlink:href="#t" transform="matrix(1,0,0,1,1440,306.09736308128635) translate(103.36000000000001 58.25)"/></g><path d="M1370.84 350.47h68.2" stroke="#3a414a" stroke-linejoin="round" fill="none"/><path d="M1341.17 350.47l14.85-14.85 15.15 14.85-15.15 14.85z" stroke="#3a414a" fill="#3a414a"/><path d="M1439.54 350.97h-.52v-1h.52z" stroke="#3a414a" stroke-width=".05" fill="#3a414a"/><g><use xlink:href="#y" transform="matrix(1,0,0,1,1340.964903370928,369.9723630812864) translate(0 14.4)"/></g><g><use xlink:href="#y" transform="matrix(1,0,0,1,1412.0365305263801,324.8723630812864) translate(0 14.4)"/></g><path d="M957.04 476.47a6 6 0 0 1 6-6H1334a6 6 0 0 1 6 6v87.06a6 6 0 0 1-6 6H963.04a6 6 0 0 1-6-6z" stroke="#3a414a" fill="#fff"/><path d="M1330 480.47h-15v20h15z" stroke="#3a414a" fill="#fff"/><path d="M1320 483.8h-10v3.34h10zm0 10h-10v3.34h10z" stroke="#3a414a" fill="#fff"/><g><use xlink:href="#H" transform="matrix(1,0,0,1,957.0366641856244,470.47236308128635) translate(5.01 27.15277777777777)"/><use xlink:href="#I" transform="matrix(1,0,0,1,957.0366641856244,470.47236308128635) translate(24.145802469135795 27.15277777777777)"/><use xlink:href="#J" transform="matrix(1,0,0,1,957.0366641856244,470.47236308128635) translate(78.46679012345675 27.15277777777777)"/><use xlink:href="#K" transform="matrix(1,0,0,1,957.0366641856244,470.47236308128635) translate(5.01 53.81944444444443)"/><use xlink:href="#L" transform="matrix(1,0,0,1,957.0366641856244,470.47236308128635) translate(24.145802469135795 53.81944444444443)"/><use xlink:href="#M" transform="matrix(1,0,0,1,957.0366641856244,470.47236308128635) translate(91.98530864197528 53.81944444444443)"/><use xlink:href="#N" transform="matrix(1,0,0,1,957.0366641856244,470.47236308128635) translate(153.5902469135802 53.81944444444443)"/><use xlink:href="#O" transform="matrix(1,0,0,1,957.0366641856244,470.47236308128635) translate(5.01 80.48611111111109)"/></g><path d="M810.84 520h145.23" stroke="#3a414a" stroke-linejoin="round" fill="none"/><path d="M781.17 520l14.85-14.85L811.17 520l-15.15 14.85z" stroke="#3a414a" fill="#3a414a"/><path d="M956.57 520.5h-.5v-1h.5z" stroke="#3a414a" stroke-width=".05" fill="#3a414a"/><g><use xlink:href="#y" transform="matrix(1,0,0,1,925.1666666666665,494.40000000000003) translate(0 14.4)"/></g><path d="M1388.9 749.7l.03 1.07.1 1.5.15 1.5.2 1.46.3 1.44.32 1.42.4 1.4.46 1.4.52 1.42.6 1.4.65 1.42.75 1.42.82 1.43.93 1.44 1.02 1.48 1.14 1.5 1.25 1.52 1.4 1.56 1.58 1.6 1.75 1.65 1.96 1.7 2.2 1.73 2.47 1.8 2.8 1.85 3.16 1.9 3.58 1.97 4.06 2.02 4.63 2.06 5.27 2.08 6 2.1 6.8 2.03 7.62 1.95 8.5 1.8 9.26 1.57 9.88 1.24 10.22.86 10.23.43h9.87l9.17-.38 8.3-.7 7.3-.9 6.33-1.08 5.43-1.17 4.64-1.18 3.94-1.2 3.37-1.16 2.87-1.15 2.47-1.1 2.12-1.05 1.83-1 1.14-.7 2.98-1.95 3-2.22 3-2.48 2.96-2.72 2.83-2.93 2.68-3.08 2.48-3.2 2.25-3.25 2-3.25 1.72-3.2 1.47-3.13 1.22-3.04 1-2.9.77-2.78.6-2.64.4-2.52.26-2.4.13-2.26V743l-.12-2.1-.23-1.97-.3-1.9-.42-1.83-.5-1.77-.6-1.7-.67-1.67-.76-1.63-.86-1.58-.95-1.55-1.07-1.53-1.17-1.5-1.3-1.5-1.45-1.47-1.6-1.47-1.78-1.45-1.98-1.45-2.23-1.45-2.5-1.44-2.82-1.42-3.23-1.4-3.7-1.4-4.28-1.32-5-1.25-5.9-1.14-7.04-.96-8.5-.68-10.43-.27-2.53.07" stroke="#3a414a" stroke-linejoin="round" fill="none"/><path d="M1389.4 749.72l-1 .02v-.53h1z" stroke="#3a414a" stroke-width=".05" fill="#3a414a"/><path d="M1498.96 704.33l13.78-15.85 16.15 13.76-14.1 15.87z" stroke="#3a414a" fill="#fff"/><g><use xlink:href="#y" transform="matrix(1,0,0,1,1355.2467087768978,749.5183784058032) translate(0 14.4)"/></g><g><use xlink:href="#l" transform="matrix(1,0,0,1,1509.5861092652576,722.4747249545072) translate(0 14.4)"/></g><path d="M1498.68 684.2l7.88-4.14 7.17-4.15 6.2-3.95 5.42-3.77 4.74-3.6 4.15-3.46 3.67-3.3 3.25-3.2 2.9-3.08 2.55-2.98 2.3-2.9 2.02-2.8 1.82-2.74 1.6-2.68 1.45-2.62 1.3-2.58 1.1-2.54 1-2.5.86-2.5.74-2.45.62-2.44.52-2.43.4-2.44.3-2.44.2-2.47.1-2.46v-2.5l-.1-2.5-.22-2.56-.33-2.57-.46-2.64-.58-2.7-.7-2.73-.86-2.8-1-2.88-1.18-2.96-1.36-3.03-1.55-3.1-1.76-3.22-2-3.3-2.28-3.4-2.56-3.5-2.86-3.6-3.2-3.7-3.57-3.78-.8-.8-1.6-1.53-1.7-1.53-1.9-1.5-2.04-1.53-2.24-1.52-2.48-1.52-2.72-1.54-3.03-1.54-3.38-1.55-3.82-1.55-4.32-1.55-4.93-1.55-5.7-1.52-6.65-1.48-7.87-1.4-9.46-1.3-11.67-1.1-14.86-.76-20.17-.2-35.3 1.23-18.92.92" stroke="#3a414a" stroke-linejoin="round" fill="none"/><path d="M1498.92 684.63l-.7.36v-1.14l.24-.12z" stroke="#3a414a" stroke-width=".05" fill="#3a414a"/><path d="M1341.18 526.63l14.15-15.5 15.8 14.13-14.44 15.52z" stroke="#3a414a" fill="#fff"/><g><use xlink:href="#y" transform="matrix(1,0,0,1,1502.4756496649995,642.3090008383164) translate(0 14.4)"/></g><g><use xlink:href="#l" transform="matrix(1,0,0,1,1364.1521045222848,484.22161103317165) translate(0 14.4)"/></g><defs><path fill="#3a414a" d="M30-248c87 1 191-15 191 75 0 78-77 80-158 76V0H30v-248zm33 125c57 0 124 11 124-50 0-59-68-47-124-48v98" id="P"/><path fill="#3a414a" d="M141-36C126-15 110 5 73 4 37 3 15-17 15-53c-1-64 63-63 125-63 3-35-9-54-41-54-24 1-41 7-42 31l-33-3c5-37 33-52 76-52 45 0 72 20 72 64v82c-1 20 7 32 28 27v20c-31 9-61-2-59-35zM48-53c0 20 12 33 32 33 41-3 63-29 60-74-43 2-92-5-92 41" id="Q"/><path fill="#3a414a" d="M96-169c-40 0-48 33-48 73s9 75 48 75c24 0 41-14 43-38l32 2c-6 37-31 61-74 61-59 0-76-41-82-99-10-93 101-131 147-64 4 7 5 14 7 22l-32 3c-4-21-16-35-41-35" id="R"/><path fill="#3a414a" d="M143 0L79-87 56-68V0H24v-261h32v163l83-92h37l-77 82L181 0h-38" id="S"/><path fill="#3a414a" d="M177-190C167-65 218 103 67 71c-23-6-38-20-44-43l32-5c15 47 100 32 89-28v-30C133-14 115 1 83 1 29 1 15-40 15-95c0-56 16-97 71-98 29-1 48 16 59 35 1-10 0-23 2-32h30zM94-22c36 0 50-32 50-73 0-42-14-75-50-75-39 0-46 34-46 75s6 73 46 73" id="T"/><path fill="#3a414a" d="M100-194c63 0 86 42 84 106H49c0 40 14 67 53 68 26 1 43-12 49-29l28 8c-11 28-37 45-77 45C44 4 14-33 15-96c1-61 26-98 85-98zm52 81c6-60-76-77-97-28-3 7-6 17-6 28h103" id="U"/><g id="a"><use transform="matrix(0.06172839506172839,0,0,0.06172839506172839,0,0)" xlink:href="#P"/><use transform="matrix(0.06172839506172839,0,0,0.06172839506172839,14.814814814814813,0)" xlink:href="#Q"/><use transform="matrix(0.06172839506172839,0,0,0.06172839506172839,27.160493827160494,0)" xlink:href="#R"/><use transform="matrix(0.06172839506172839,0,0,0.06172839506172839,38.27160493827161,0)" xlink:href="#S"/><use transform="matrix(0.06172839506172839,0,0,0.06172839506172839,49.38271604938272,0)" xlink:href="#Q"/><use transform="matrix(0.06172839506172839,0,0,0.06172839506172839,61.7283950617284,0)" xlink:href="#T"/><use transform="matrix(0.06172839506172839,0,0,0.06172839506172839,74.07407407407408,0)" xlink:href="#U"/></g><path fill="#3a414a" d="M118-107v75H92v-75H18v-26h74v-75h26v75h74v26h-74" id="V"/><use transform="matrix(0.06172839506172839,0,0,0.06172839506172839,0,0)" xlink:href="#V" id="b"/><path fill="#3a414a" d="M59-47c-2 24 18 29 38 22v24C64 9 27 4 27-40v-127H5v-23h24l9-43h21v43h35v23H59v120" id="W"/><path fill="#3a414a" d="M179-190L93 31C79 59 56 82 12 73V49c39 6 53-20 64-50L1-190h34L92-34l54-156h33" id="X"/><path fill="#3a414a" d="M115-194c55 1 70 41 70 98S169 2 115 4C84 4 66-9 55-30l1 105H24l-1-265h31l2 30c10-21 28-34 59-34zm-8 174c40 0 45-34 45-75s-6-73-45-74c-42 0-51 32-51 76 0 43 10 73 51 73" id="Y"/><path fill="#3a414a" d="M33-154v-36h34v36H33zM33 0v-36h34V0H33" id="Z"/><g id="c"><use transform="matrix(0.06172839506172839,0,0,0.06172839506172839,0,0)" xlink:href="#W"/><use transform="matrix(0.06172839506172839,0,0,0.06172839506172839,6.172839506172839,0)" xlink:href="#X"/><use transform="matrix(0.06172839506172839,0,0,0.06172839506172839,17.28395061728395,0)" xlink:href="#Y"/><use transform="matrix(0.06172839506172839,0,0,0.06172839506172839,29.629629629629626,0)" xlink:href="#U"/><use transform="matrix(0.06172839506172839,0,0,0.06172839506172839,41.9753086419753,0)" xlink:href="#Z"/></g><path fill="#3a414a" d="M101-234c-31-9-42 10-38 44h38v23H63V0H32v-167H5v-23h27c-7-52 17-82 69-68v24" id="aa"/><path fill="#3a414a" d="M100-194c62-1 85 37 85 99 1 63-27 99-86 99S16-35 15-95c0-66 28-99 85-99zM99-20c44 1 53-31 53-75 0-43-8-75-51-75s-53 32-53 75 10 74 51 75" id="ab"/><path fill="#3a414a" d="M24 0v-261h32V0H24" id="ac"/><path fill="#3a414a" d="M85-194c31 0 48 13 60 33l-1-100h32l1 261h-30c-2-10 0-23-3-31C134-8 116 4 85 4 32 4 16-35 15-94c0-66 23-100 70-100zm9 24c-40 0-46 34-46 75 0 40 6 74 45 74 42 0 51-32 51-76 0-42-9-74-50-73" id="ad"/><path fill="#3a414a" d="M114-163C36-179 61-72 57 0H25l-1-190h30c1 12-1 29 2 39 6-27 23-49 58-41v29" id="ae"/><g id="d"><use transform="matrix(0.06172839506172839,0,0,0.06172839506172839,0,0)" xlink:href="#aa"/><use transform="matrix(0.06172839506172839,0,0,0.06172839506172839,6.172839506172839,0)" xlink:href="#ab"/><use transform="matrix(0.06172839506172839,0,0,0.06172839506172839,18.51851851851852,0)" xlink:href="#ac"/><use transform="matrix(0.06172839506172839,0,0,0.06172839506172839,23.395061728395063,0)" xlink:href="#ad"/><use transform="matrix(0.06172839506172839,0,0,0.06172839506172839,35.74074074074074,0)" xlink:href="#U"/><use transform="matrix(0.06172839506172839,0,0,0.06172839506172839,48.08641975308642,0)" xlink:href="#ae"/></g><use transform="matrix(0.06172839506172839,0,0,0.06172839506172839,0,0)" xlink:href="#V" id="e"/><path fill="#3a414a" d="M117-194c89-4 53 116 60 194h-32v-121c0-31-8-49-39-48C34-167 62-67 57 0H25l-1-190h30c1 10-1 24 2 32 11-22 29-35 61-36" id="af"/><path fill="#3a414a" d="M210-169c-67 3-38 105-44 169h-31v-121c0-29-5-50-35-48C34-165 62-65 56 0H25l-1-190h30c1 10-1 24 2 32 10-44 99-50 107 0 11-21 27-35 58-36 85-2 47 119 55 194h-31v-121c0-29-5-49-35-48" id="ag"/><g id="f"><use transform="matrix(0.06172839506172839,0,0,0.06172839506172839,0,0)" xlink:href="#af"/><use transform="matrix(0.06172839506172839,0,0,0.06172839506172839,12.345679012345679,0)" xlink:href="#Q"/><use transform="matrix(0.06172839506172839,0,0,0.06172839506172839,24.691358024691358,0)" xlink:href="#ag"/><use transform="matrix(0.06172839506172839,0,0,0.06172839506172839,43.148148148148145,0)" xlink:href="#U"/><use transform="matrix(0.06172839506172839,0,0,0.06172839506172839,55.49382716049382,0)" xlink:href="#Z"/></g><path fill="#3a414a" d="M63-220v92h138v28H63V0H30v-248h175v28H63" id="ah"/><path fill="#3a414a" d="M24-231v-30h32v30H24zM24 0v-190h32V0H24" id="ai"/><g id="g"><use transform="matrix(0.06172839506172839,0,0,0.06172839506172839,0,0)" xlink:href="#ah"/><use transform="matrix(0.06172839506172839,0,0,0.06172839506172839,13.518518518518517,0)" xlink:href="#ai"/><use transform="matrix(0.06172839506172839,0,0,0.06172839506172839,18.39506172839506,0)" xlink:href="#af"/><use transform="matrix(0.06172839506172839,0,0,0.06172839506172839,30.74074074074074,0)" xlink:href="#ad"/><use transform="matrix(0.06172839506172839,0,0,0.06172839506172839,43.08641975308642,0)" xlink:href="#ai"/><use transform="matrix(0.06172839506172839,0,0,0.06172839506172839,47.96296296296296,0)" xlink:href="#af"/><use transform="matrix(0.06172839506172839,0,0,0.06172839506172839,60.30864197530864,0)" xlink:href="#T"/></g><path fill="#3a414a" d="M205 0l-28-72H64L36 0H1l101-248h38L239 0h-34zm-38-99l-47-123c-12 45-31 82-46 123h93" id="aj"/><g id="h"><use transform="matrix(0.06172839506172839,0,0,0.06172839506172839,0,0)" xlink:href="#aj"/><use transform="matrix(0.06172839506172839,0,0,0.06172839506172839,14.814814814814813,0)" xlink:href="#ai"/><use transform="matrix(0.06172839506172839,0,0,0.06172839506172839,19.691358024691354,0)" xlink:href="#ad"/></g><g id="i"><use transform="matrix(0.06172839506172839,0,0,0.06172839506172839,0,0)" xlink:href="#R"/><use transform="matrix(0.06172839506172839,0,0,0.06172839506172839,11.11111111111111,0)" xlink:href="#ab"/><use transform="matrix(0.06172839506172839,0,0,0.06172839506172839,23.45679012345679,0)" xlink:href="#ag"/><use transform="matrix(0.06172839506172839,0,0,0.06172839506172839,41.91358024691358,0)" xlink:href="#Y"/><use transform="matrix(0.06172839506172839,0,0,0.06172839506172839,54.25925925925926,0)" xlink:href="#ab"/><use transform="matrix(0.06172839506172839,0,0,0.06172839506172839,66.60493827160494,0)" xlink:href="#af"/><use transform="matrix(0.06172839506172839,0,0,0.06172839506172839,78.95061728395062,0)" xlink:href="#U"/><use transform="matrix(0.06172839506172839,0,0,0.06172839506172839,91.2962962962963,0)" xlink:href="#af"/><use transform="matrix(0.06172839506172839,0,0,0.06172839506172839,103.64197530864199,0)" xlink:href="#W"/></g><g id="j"><use transform="matrix(0.06172839506172839,0,0,0.06172839506172839,0,0)" xlink:href="#ag"/><use transform="matrix(0.06172839506172839,0,0,0.06172839506172839,18.456790123456788,0)" xlink:href="#U"/><use transform="matrix(0.06172839506172839,0,0,0.06172839506172839,30.80246913580247,0)" xlink:href="#W"/><use transform="matrix(0.06172839506172839,0,0,0.06172839506172839,36.97530864197531,0)" xlink:href="#Q"/><use transform="matrix(0.06172839506172839,0,0,0.06172839506172839,49.32098765432099,0)" xlink:href="#ad"/><use transform="matrix(0.06172839506172839,0,0,0.06172839506172839,61.666666666666664,0)" xlink:href="#Q"/><use transform="matrix(0.06172839506172839,0,0,0.06172839506172839,74.01234567901234,0)" xlink:href="#W"/><use transform="matrix(0.06172839506172839,0,0,0.06172839506172839,80.18518518518518,0)" xlink:href="#Q"/></g><path fill="#3a414a" d="M115-194c53 0 69 39 70 98 0 66-23 100-70 100C84 3 66-7 56-30L54 0H23l1-261h32v101c10-23 28-34 59-34zm-8 174c40 0 45-34 45-75 0-40-5-75-45-74-42 0-51 32-51 76 0 43 10 73 51 73" id="ak"/><path fill="#3a414a" d="M24-231v-30h32v30H24zM-9 49c24 4 33-6 33-30v-209h32V24c2 40-23 58-65 49V49" id="al"/><path fill="#3a414a" d="M135-143c-3-34-86-38-87 0 15 53 115 12 119 90S17 21 10-45l28-5c4 36 97 45 98 0-10-56-113-15-118-90-4-57 82-63 122-42 12 7 21 19 24 35" id="am"/><g id="k"><use transform="matrix(0.06172839506172839,0,0,0.06172839506172839,0,0)" xlink:href="#ab"/><use transform="matrix(0.06172839506172839,0,0,0.06172839506172839,12.345679012345679,0)" xlink:href="#ak"/><use transform="matrix(0.06172839506172839,0,0,0.06172839506172839,24.691358024691358,0)" xlink:href="#al"/><use transform="matrix(0.06172839506172839,0,0,0.06172839506172839,29.5679012345679,0)" xlink:href="#U"/><use transform="matrix(0.06172839506172839,0,0,0.06172839506172839,41.913580246913575,0)" xlink:href="#R"/><use transform="matrix(0.06172839506172839,0,0,0.06172839506172839,53.02469135802468,0)" xlink:href="#W"/><use transform="matrix(0.06172839506172839,0,0,0.06172839506172839,59.197530864197525,0)" xlink:href="#am"/></g><path d="M27 0v-27h64v-190l-56 39v-29l58-41h29v221h61V0H27" id="an"/><use transform="matrix(0.05,0,0,0.05,0,0)" xlink:href="#an" id="l"/><path d="M118-107v75H92v-75H18v-26h74v-75h26v75h74v26h-74" id="ao"/><use transform="matrix(0.05,0,0,0.05,0,0)" xlink:href="#ao" id="m"/><path d="M59-47c-2 24 18 29 38 22v24C64 9 27 4 27-40v-127H5v-23h24l9-43h21v43h35v23H59v120" id="ap"/><path d="M179-190L93 31C79 59 56 82 12 73V49c39 6 53-20 64-50L1-190h34L92-34l54-156h33" id="aq"/><path d="M115-194c55 1 70 41 70 98S169 2 115 4C84 4 66-9 55-30l1 105H24l-1-265h31l2 30c10-21 28-34 59-34zm-8 174c40 0 45-34 45-75s-6-73-45-74c-42 0-51 32-51 76 0 43 10 73 51 73" id="ar"/><path d="M100-194c63 0 86 42 84 106H49c0 40 14 67 53 68 26 1 43-12 49-29l28 8c-11 28-37 45-77 45C44 4 14-33 15-96c1-61 26-98 85-98zm52 81c6-60-76-77-97-28-3 7-6 17-6 28h103" id="as"/><path d="M33-154v-36h34v36H33zM33 0v-36h34V0H33" id="at"/><g id="n"><use transform="matrix(0.05,0,0,0.05,0,0)" xlink:href="#ap"/><use transform="matrix(0.05,0,0,0.05,5,0)" xlink:href="#aq"/><use transform="matrix(0.05,0,0,0.05,14,0)" xlink:href="#ar"/><use transform="matrix(0.05,0,0,0.05,24,0)" xlink:href="#as"/><use transform="matrix(0.05,0,0,0.05,34,0)" xlink:href="#at"/></g><path d="M101-234c-31-9-42 10-38 44h38v23H63V0H32v-167H5v-23h27c-7-52 17-82 69-68v24" id="au"/><path d="M24-231v-30h32v30H24zM24 0v-190h32V0H24" id="av"/><path d="M24 0v-261h32V0H24" id="aw"/><g id="o"><use transform="matrix(0.05,0,0,0.05,0,0)" xlink:href="#au"/><use transform="matrix(0.05,0,0,0.05,5,0)" xlink:href="#av"/><use transform="matrix(0.05,0,0,0.05,8.95,0)" xlink:href="#aw"/><use transform="matrix(0.05,0,0,0.05,12.899999999999999,0)" xlink:href="#as"/></g><path d="M87 75C49 33 22-17 22-94c0-76 28-126 65-167h31c-38 41-64 92-64 168S80 34 118 75H87" id="ax"/><path d="M63-220v92h138v28H63V0H30v-248h175v28H63" id="ay"/><path d="M127-220V0H93v-220H8v-28h204v28h-85" id="az"/><path d="M194 0L95-120 63-95V0H30v-248h33v124l119-124h40L117-140 236 0h-42" id="aA"/><g id="p"><use transform="matrix(0.05,0,0,0.05,0,0)" xlink:href="#ax"/><use transform="matrix(0.05,0,0,0.05,5.95,0)" xlink:href="#ay"/><use transform="matrix(0.05,0,0,0.05,16.900000000000002,0)" xlink:href="#az"/><use transform="matrix(0.05,0,0,0.05,27.85,0)" xlink:href="#aA"/></g><path d="M141 0L90-78 38 0H4l68-98-65-92h35l48 74 47-74h35l-64 92 68 98h-35" id="aB"/><path d="M100-194c62-1 85 37 85 99 1 63-27 99-86 99S16-35 15-95c0-66 28-99 85-99zM99-20c44 1 53-31 53-75 0-43-8-75-51-75s-53 32-53 75 10 74 51 75" id="aC"/><path d="M114-163C36-179 61-72 57 0H25l-1-190h30c1 12-1 29 2 39 6-27 23-49 58-41v29" id="aD"/><g id="q"><use transform="matrix(0.05,0,0,0.05,0,0)" xlink:href="#as"/><use transform="matrix(0.05,0,0,0.05,10,0)" xlink:href="#aB"/><use transform="matrix(0.05,0,0,0.05,19,0)" xlink:href="#ar"/><use transform="matrix(0.05,0,0,0.05,29,0)" xlink:href="#aC"/><use transform="matrix(0.05,0,0,0.05,39,0)" xlink:href="#aD"/><use transform="matrix(0.05,0,0,0.05,44.95,0)" xlink:href="#ap"/></g><path d="M212-179c-10-28-35-45-73-45-59 0-87 40-87 99 0 60 29 101 89 101 43 0 62-24 78-52l27 14C228-24 195 4 139 4 59 4 22-46 18-125c-6-104 99-153 187-111 19 9 31 26 39 46" id="aE"/><path d="M185-189c-5-48-123-54-124 2 14 75 158 14 163 119 3 78-121 87-175 55-17-10-28-26-33-46l33-7c5 56 141 63 141-1 0-78-155-14-162-118-5-82 145-84 179-34 5 7 8 16 11 25" id="aF"/><path d="M137 0h-34L2-248h35l83 218 83-218h36" id="aG"/><path d="M33-261c38 41 65 92 65 168S71 34 33 75H2C39 34 66-17 66-93S39-220 2-261h31" id="aH"/><g id="r"><use transform="matrix(0.05,0,0,0.05,0,0)" xlink:href="#aE"/><use transform="matrix(0.05,0,0,0.05,12.950000000000001,0)" xlink:href="#aF"/><use transform="matrix(0.05,0,0,0.05,24.950000000000003,0)" xlink:href="#aG"/><use transform="matrix(0.05,0,0,0.05,36.95,0)" xlink:href="#aH"/></g><path d="M117-194c89-4 53 116 60 194h-32v-121c0-31-8-49-39-48C34-167 62-67 57 0H25l-1-190h30c1 10-1 24 2 32 11-22 29-35 61-36" id="aI"/><path d="M141-36C126-15 110 5 73 4 37 3 15-17 15-53c-1-64 63-63 125-63 3-35-9-54-41-54-24 1-41 7-42 31l-33-3c5-37 33-52 76-52 45 0 72 20 72 64v82c-1 20 7 32 28 27v20c-31 9-61-2-59-35zM48-53c0 20 12 33 32 33 41-3 63-29 60-74-43 2-92-5-92 41" id="aJ"/><path d="M210-169c-67 3-38 105-44 169h-31v-121c0-29-5-50-35-48C34-165 62-65 56 0H25l-1-190h30c1 10-1 24 2 32 10-44 99-50 107 0 11-21 27-35 58-36 85-2 47 119 55 194h-31v-121c0-29-5-49-35-48" id="aK"/><g id="s"><use transform="matrix(0.05,0,0,0.05,0,0)" xlink:href="#aI"/><use transform="matrix(0.05,0,0,0.05,10,0)" xlink:href="#aJ"/><use transform="matrix(0.05,0,0,0.05,20,0)" xlink:href="#aK"/><use transform="matrix(0.05,0,0,0.05,34.95,0)" xlink:href="#as"/><use transform="matrix(0.05,0,0,0.05,44.95,0)" xlink:href="#at"/></g><g id="t"><use transform="matrix(0.05,0,0,0.05,0,0)" xlink:href="#aI"/><use transform="matrix(0.05,0,0,0.05,10,0)" xlink:href="#aJ"/><use transform="matrix(0.05,0,0,0.05,20,0)" xlink:href="#aK"/><use transform="matrix(0.05,0,0,0.05,34.95,0)" xlink:href="#as"/></g><path d="M101-251c68 0 85 55 85 127S166 4 100 4C33 4 14-52 14-124c0-73 17-127 87-127zm-1 229c47 0 54-49 54-102s-4-102-53-102c-51 0-55 48-55 102 0 53 5 102 54 102" id="aL"/><path d="M33 0v-38h34V0H33" id="aM"/><g id="u"><use transform="matrix(0.05,0,0,0.05,0,0)" xlink:href="#aL"/><use transform="matrix(0.05,0,0,0.05,10,0)" xlink:href="#aM"/><use transform="matrix(0.05,0,0,0.05,15,0)" xlink:href="#aM"/><use transform="matrix(0.05,0,0,0.05,20,0)" xlink:href="#an"/></g><g id="v"><use transform="matrix(0.05,0,0,0.05,0,0)" xlink:href="#au"/><use transform="matrix(0.05,0,0,0.05,5,0)" xlink:href="#av"/><use transform="matrix(0.05,0,0,0.05,8.95,0)" xlink:href="#aw"/><use transform="matrix(0.05,0,0,0.05,12.899999999999999,0)" xlink:href="#as"/></g><use transform="matrix(0.05,0,0,0.05,0,0)" xlink:href="#ao" id="w"/><g id="x"><use transform="matrix(0.05,0,0,0.05,0,0)" xlink:href="#aI"/><use transform="matrix(0.05,0,0,0.05,10,0)" xlink:href="#aJ"/><use transform="matrix(0.05,0,0,0.05,20,0)" xlink:href="#aK"/><use transform="matrix(0.05,0,0,0.05,34.95,0)" xlink:href="#as"/></g><path d="M80-196l47-18 7 23-49 13 32 44-20 13-27-46-27 45-21-12 33-44-49-13 8-23 47 19-2-53h23" id="aN"/><g id="y"><use transform="matrix(0.05,0,0,0.05,0,0)" xlink:href="#aL"/><use transform="matrix(0.05,0,0,0.05,10,0)" xlink:href="#aM"/><use transform="matrix(0.05,0,0,0.05,15,0)" xlink:href="#aM"/><use transform="matrix(0.05,0,0,0.05,20,0)" xlink:href="#aN"/></g><use transform="matrix(0.06172839506172837,0,0,0.06172839506172837,0,0)" xlink:href="#V" id="z"/><g id="A"><use transform="matrix(0.06172839506172837,0,0,0.06172839506172837,0,0)" xlink:href="#W"/><use transform="matrix(0.06172839506172837,0,0,0.06172839506172837,6.172839506172837,0)" xlink:href="#X"/><use transform="matrix(0.06172839506172837,0,0,0.06172839506172837,17.283950617283942,0)" xlink:href="#Y"/><use transform="matrix(0.06172839506172837,0,0,0.06172839506172837,29.629629629629616,0)" xlink:href="#U"/><use transform="matrix(0.06172839506172837,0,0,0.06172839506172837,41.97530864197529,0)" xlink:href="#Z"/></g><g id="B"><use transform="matrix(0.06172839506172837,0,0,0.06172839506172837,0,0)" xlink:href="#aa"/><use transform="matrix(0.06172839506172837,0,0,0.06172839506172837,6.172839506172837,0)" xlink:href="#ab"/><use transform="matrix(0.06172839506172837,0,0,0.06172839506172837,18.518518518518512,0)" xlink:href="#ac"/><use transform="matrix(0.06172839506172837,0,0,0.06172839506172837,23.395061728395053,0)" xlink:href="#ad"/><use transform="matrix(0.06172839506172837,0,0,0.06172839506172837,35.740740740740726,0)" xlink:href="#U"/><use transform="matrix(0.06172839506172837,0,0,0.06172839506172837,48.0864197530864,0)" xlink:href="#ae"/></g><use transform="matrix(0.06172839506172837,0,0,0.06172839506172837,0,0)" xlink:href="#V" id="C"/><g id="D"><use transform="matrix(0.06172839506172837,0,0,0.06172839506172837,0,0)" xlink:href="#af"/><use transform="matrix(0.06172839506172837,0,0,0.06172839506172837,12.345679012345673,0)" xlink:href="#Q"/><use transform="matrix(0.06172839506172837,0,0,0.06172839506172837,24.691358024691347,0)" xlink:href="#ag"/><use transform="matrix(0.06172839506172837,0,0,0.06172839506172837,43.14814814814813,0)" xlink:href="#U"/><use transform="matrix(0.06172839506172837,0,0,0.06172839506172837,55.49382716049381,0)" xlink:href="#Z"/></g><path fill="#3a414a" d="M84 4C-5 8 30-112 23-190h32v120c0 31 7 50 39 49 72-2 45-101 50-169h31l1 190h-30c-1-10 1-25-2-33-11 22-28 36-60 37" id="aO"/><path fill="#3a414a" d="M30-248c118-7 216 8 213 122C240-48 200 0 122 0H30v-248zM63-27c89 8 146-16 146-99s-60-101-146-95v194" id="aP"/><g id="E"><use transform="matrix(0.06172839506172837,0,0,0.06172839506172837,0,0)" xlink:href="#am"/><use transform="matrix(0.06172839506172837,0,0,0.06172839506172837,11.111111111111107,0)" xlink:href="#aO"/><use transform="matrix(0.06172839506172837,0,0,0.06172839506172837,23.45679012345678,0)" xlink:href="#ak"/><use transform="matrix(0.06172839506172837,0,0,0.06172839506172837,35.802469135802454,0)" xlink:href="#ag"/><use transform="matrix(0.06172839506172837,0,0,0.06172839506172837,54.25925925925924,0)" xlink:href="#ai"/><use transform="matrix(0.06172839506172837,0,0,0.06172839506172837,59.13580246913578,0)" xlink:href="#am"/><use transform="matrix(0.06172839506172837,0,0,0.06172839506172837,70.24691358024688,0)" xlink:href="#am"/><use transform="matrix(0.06172839506172837,0,0,0.06172839506172837,81.358024691358,0)" xlink:href="#ai"/><use transform="matrix(0.06172839506172837,0,0,0.06172839506172837,86.23456790123454,0)" xlink:href="#ab"/><use transform="matrix(0.06172839506172837,0,0,0.06172839506172837,98.58024691358021,0)" xlink:href="#af"/><use transform="matrix(0.06172839506172837,0,0,0.06172839506172837,110.92592592592588,0)" xlink:href="#aP"/><use transform="matrix(0.06172839506172837,0,0,0.06172839506172837,126.91358024691353,0)" xlink:href="#ab"/><use transform="matrix(0.06172839506172837,0,0,0.06172839506172837,139.2592592592592,0)" xlink:href="#R"/><use transform="matrix(0.06172839506172837,0,0,0.06172839506172837,150.37037037037032,0)" xlink:href="#aO"/><use transform="matrix(0.06172839506172837,0,0,0.06172839506172837,162.716049382716,0)" xlink:href="#ag"/><use transform="matrix(0.06172839506172837,0,0,0.06172839506172837,181.17283950617278,0)" xlink:href="#U"/><use transform="matrix(0.06172839506172837,0,0,0.06172839506172837,193.51851851851845,0)" xlink:href="#af"/><use transform="matrix(0.06172839506172837,0,0,0.06172839506172837,205.86419753086412,0)" xlink:href="#W"/><use transform="matrix(0.06172839506172837,0,0,0.06172839506172837,212.03703703703695,0)" xlink:href="#Q"/><use transform="matrix(0.06172839506172837,0,0,0.06172839506172837,224.38271604938262,0)" xlink:href="#W"/><use transform="matrix(0.06172839506172837,0,0,0.06172839506172837,230.55555555555546,0)" xlink:href="#ai"/><use transform="matrix(0.06172839506172837,0,0,0.06172839506172837,235.432098765432,0)" xlink:href="#ab"/><use transform="matrix(0.06172839506172837,0,0,0.06172839506172837,247.77777777777766,0)" xlink:href="#af"/></g><path fill="#3a414a" d="M87 75C49 33 22-17 22-94c0-76 28-126 65-167h31c-38 41-64 92-64 168S80 34 118 75H87" id="aQ"/><path fill="#3a414a" d="M33-261c38 41 65 92 65 168S71 34 33 75H2C39 34 66-17 66-93S39-220 2-261h31" id="aR"/><g id="F"><use transform="matrix(0.06172839506172837,0,0,0.06172839506172837,0,0)" xlink:href="#aQ"/><use transform="matrix(0.06172839506172837,0,0,0.06172839506172837,7.345679012345676,0)" xlink:href="#ab"/><use transform="matrix(0.06172839506172837,0,0,0.06172839506172837,19.69135802469135,0)" xlink:href="#Y"/><use transform="matrix(0.06172839506172837,0,0,0.06172839506172837,32.037037037037024,0)" xlink:href="#W"/><use transform="matrix(0.06172839506172837,0,0,0.06172839506172837,38.20987654320986,0)" xlink:href="#ai"/><use transform="matrix(0.06172839506172837,0,0,0.06172839506172837,43.0864197530864,0)" xlink:href="#ab"/><use transform="matrix(0.06172839506172837,0,0,0.06172839506172837,55.43209876543207,0)" xlink:href="#af"/><use transform="matrix(0.06172839506172837,0,0,0.06172839506172837,67.77777777777774,0)" xlink:href="#Q"/><use transform="matrix(0.06172839506172837,0,0,0.06172839506172837,80.12345679012341,0)" xlink:href="#ac"/><use transform="matrix(0.06172839506172837,0,0,0.06172839506172837,84.99999999999996,0)" xlink:href="#aR"/></g><g id="G"><use transform="matrix(0.05,0,0,0.05,0,0)" xlink:href="#ax"/><use transform="matrix(0.05,0,0,0.05,5.95,0)" xlink:href="#aE"/><use transform="matrix(0.05,0,0,0.05,18.900000000000002,0)" xlink:href="#aF"/><use transform="matrix(0.05,0,0,0.05,30.900000000000002,0)" xlink:href="#aG"/><use transform="matrix(0.05,0,0,0.05,42.900000000000006,0)" xlink:href="#aH"/></g><use transform="matrix(0.06172839506172837,0,0,0.06172839506172837,0,0)" xlink:href="#V" id="H"/><g id="I"><use transform="matrix(0.06172839506172837,0,0,0.06172839506172837,0,0)" xlink:href="#W"/><use transform="matrix(0.06172839506172837,0,0,0.06172839506172837,6.172839506172837,0)" xlink:href="#X"/><use transform="matrix(0.06172839506172837,0,0,0.06172839506172837,17.283950617283942,0)" xlink:href="#Y"/><use transform="matrix(0.06172839506172837,0,0,0.06172839506172837,29.629629629629616,0)" xlink:href="#U"/><use transform="matrix(0.06172839506172837,0,0,0.06172839506172837,41.97530864197529,0)" xlink:href="#Z"/></g><g id="J"><use transform="matrix(0.06172839506172837,0,0,0.06172839506172837,0,0)" xlink:href="#aa"/><use transform="matrix(0.06172839506172837,0,0,0.06172839506172837,6.172839506172837,0)" xlink:href="#ab"/><use transform="matrix(0.06172839506172837,0,0,0.06172839506172837,18.518518518518512,0)" xlink:href="#ac"/><use transform="matrix(0.06172839506172837,0,0,0.06172839506172837,23.395061728395053,0)" xlink:href="#ad"/><use transform="matrix(0.06172839506172837,0,0,0.06172839506172837,35.740740740740726,0)" xlink:href="#U"/><use transform="matrix(0.06172839506172837,0,0,0.06172839506172837,48.0864197530864,0)" xlink:href="#ae"/></g><use transform="matrix(0.06172839506172837,0,0,0.06172839506172837,0,0)" xlink:href="#V" id="K"/><g id="L"><use transform="matrix(0.06172839506172837,0,0,0.06172839506172837,0,0)" xlink:href="#af"/><use transform="matrix(0.06172839506172837,0,0,0.06172839506172837,12.345679012345673,0)" xlink:href="#Q"/><use transform="matrix(0.06172839506172837,0,0,0.06172839506172837,24.691358024691347,0)" xlink:href="#ag"/><use transform="matrix(0.06172839506172837,0,0,0.06172839506172837,43.14814814814813,0)" xlink:href="#U"/><use transform="matrix(0.06172839506172837,0,0,0.06172839506172837,55.49382716049381,0)" xlink:href="#Z"/></g><g id="M"><use transform="matrix(0.06172839506172837,0,0,0.06172839506172837,0,0)" xlink:href="#aa"/><use transform="matrix(0.06172839506172837,0,0,0.06172839506172837,6.172839506172837,0)" xlink:href="#ab"/><use transform="matrix(0.06172839506172837,0,0,0.06172839506172837,18.518518518518512,0)" xlink:href="#ac"/><use transform="matrix(0.06172839506172837,0,0,0.06172839506172837,23.395061728395053,0)" xlink:href="#ad"/><use transform="matrix(0.06172839506172837,0,0,0.06172839506172837,35.740740740740726,0)" xlink:href="#U"/><use transform="matrix(0.06172839506172837,0,0,0.06172839506172837,48.0864197530864,0)" xlink:href="#ae"/></g><g id="N"><use transform="matrix(0.06172839506172837,0,0,0.06172839506172837,0,0)" xlink:href="#af"/><use transform="matrix(0.06172839506172837,0,0,0.06172839506172837,12.345679012345673,0)" xlink:href="#Q"/><use transform="matrix(0.06172839506172837,0,0,0.06172839506172837,24.691358024691347,0)" xlink:href="#ag"/><use transform="matrix(0.06172839506172837,0,0,0.06172839506172837,43.14814814814813,0)" xlink:href="#U"/></g><g id="O"><use transform="matrix(0.06172839506172837,0,0,0.06172839506172837,0,0)" xlink:href="#aQ"/><use transform="matrix(0.06172839506172837,0,0,0.06172839506172837,7.345679012345676,0)" xlink:href="#ab"/><use transform="matrix(0.06172839506172837,0,0,0.06172839506172837,19.69135802469135,0)" xlink:href="#Y"/><use transform="matrix(0.06172839506172837,0,0,0.06172839506172837,32.037037037037024,0)" xlink:href="#W"/><use transform="matrix(0.06172839506172837,0,0,0.06172839506172837,38.20987654320986,0)" xlink:href="#ai"/><use transform="matrix(0.06172839506172837,0,0,0.06172839506172837,43.0864197530864,0)" xlink:href="#ab"/><use transform="matrix(0.06172839506172837,0,0,0.06172839506172837,55.43209876543207,0)" xlink:href="#af"/><use transform="matrix(0.06172839506172837,0,0,0.06172839506172837,67.77777777777774,0)" xlink:href="#Q"/><use transform="matrix(0.06172839506172837,0,0,0.06172839506172837,80.12345679012341,0)" xlink:href="#ac"/><use transform="matrix(0.06172839506172837,0,0,0.06172839506172837,84.99999999999996,0)" xlink:href="#aR"/></g></defs></g></svg>